<svg xmlns="http://www.w3.org/2000/svg" width="430.657" height="108.698" viewBox="0 0 430.657 108.698">
  <g id="logo_brevil" data-name="logo brevil" transform="translate(-57.823 -62)">
    <path id="Caminho_726" data-name="Caminho 726" d="M166.982,62,110.476,170.045H62.8l4.3-4.635H81.01l50.877-98.885H115.774L119.526,62h47.456" transform="translate(-4.977 0)" fill="#ef3d2f"/>
    <path id="Caminho_727" data-name="Caminho 727" d="M168.774,62,112.6,170.045s44.255,4.966,55.071-20.417c11.588-27.26-1.545-33-9.27-36.42-7.284-3.2-8.388-2.98-5.408-2.98s20.417-2.538,27.37-9.6c6.291-6.4,6.953-9.933,7.725-15.009C190.3,71.491,179.259,63.766,168.774,62" transform="translate(0.183 0)" fill="#ef3d2f"/>
    <path id="Caminho_728" data-name="Caminho 728" d="M195.3,170.074H170.8l36.971-65.114s6.291-10.926,5.3-15.561c-1.1-4.856-5.3-5.96-13.575-5.849-8.5.11-11.036.441-11.036.441L199.6,63.905s12.692-.441,20.527,1.1c7.063,1.435,11.147,5.3,13.133,8.829,2.869,4.966,4.746,11.367,1.214,20.086-3.532,8.608-39.179,76.15-39.179,76.15" transform="translate(6.214 0.191)" fill="#fff"/>
    <path id="Caminho_729" data-name="Caminho 729" d="M123.106,136.027,266.356,72.9,106,168.915l17.106-32.888" transform="translate(-0.501 1.129)" fill="#f7e604"/>
    <path id="Caminho_730" data-name="Caminho 730" d="M28.2,208.416,48.617,169.9H61.088c2.759,0,4.525.11,5.628.221a8.563,8.563,0,0,1,4.083,1.545,4.9,4.9,0,0,1,1.766,3.2,8.483,8.483,0,0,1-.441,4.3,12.828,12.828,0,0,1-3.532,5.518,15.586,15.586,0,0,1-6.4,3.532,5.336,5.336,0,0,1,3.421,2.869,6.991,6.991,0,0,1,0,4.746,17.738,17.738,0,0,1-4.083,6.622,18.686,18.686,0,0,1-6.622,4.525,28.9,28.9,0,0,1-9.491,1.324H28.2m10.816-6.07H46.3a19.668,19.668,0,0,0,6.291-.662,9.715,9.715,0,0,0,3.2-1.987,9.359,9.359,0,0,0,1.987-2.98,3.218,3.218,0,0,0-.331-3.2c-.662-.883-1.987-1.214-4.083-1.214H44.423Zm8.829-16.775h5.739a23.69,23.69,0,0,0,5.739-.552,8.47,8.47,0,0,0,3.2-1.876,6.906,6.906,0,0,0,1.766-2.759,3.063,3.063,0,0,0,0-2.428,2.6,2.6,0,0,0-1.876-1.214,29.382,29.382,0,0,0-3.863-.11H52.7Z" transform="translate(203.577 -52.838)" fill="#fff"/>
    <path id="Caminho_731" data-name="Caminho 731" d="M82.2,208.416H74.7L95.117,169.9H111.34a17.039,17.039,0,0,1,6.18.883,5.059,5.059,0,0,1,2.649,3.311,10.157,10.157,0,0,1-.552,5.849A16.577,16.577,0,0,1,114.1,188a19.326,19.326,0,0,1-9.712,3.973,9.29,9.29,0,0,1,1.545,3.642,77.335,77.335,0,0,1,1.324,12.8H99.2a99.318,99.318,0,0,0-.441-10.153q-.331-3.807-1.655-4.966c-.552-.552-1.655-.773-3.532-.773h-3.09L82.2,208.416m11.478-21.741h3.973c4.083,0,6.842-.221,8.277-.773a10.012,10.012,0,0,0,3.863-2.428A7.9,7.9,0,0,0,112,180.053c.441-1.435.331-2.428-.552-3.2-.552-.441-1.876-.662-4.083-.662H99.09Z" transform="translate(208.396 -52.838)" fill="#fff"/>
    <path id="Caminho_732" data-name="Caminho 732" d="M120.8,208.416,141.107,169.9h27.149l-3.421,6.511H145.3l-4.635,8.719h18.872l-3.421,6.4H137.244l-5.739,10.484h21.19l-3.421,6.4H120.8" transform="translate(213.173 -52.838)" fill="#fff"/>
    <path id="Caminho_733" data-name="Caminho 733" d="M181.756,208.416H173.7l6.291-38.516h7.5l-5.077,29.136L207.25,169.9h7.394l-32.888,38.516" transform="translate(218.654 -52.838)" fill="#fff"/>
    <path id="Caminho_734" data-name="Caminho 734" d="M207.9,208.416,228.317,169.9h7.5L215.4,208.416h-7.5" transform="translate(222.198 -52.838)" fill="#fff"/>
    <path id="Caminho_735" data-name="Caminho 735" d="M234,208.416,254.417,169.9h7.5l-17,32.115h18.651l-3.421,6.4H234" transform="translate(224.903 -52.838)" fill="#fff"/>
    <path id="Caminho_736" data-name="Caminho 736" d="M21.6,219.243,29.215,209.2h3.752a3.1,3.1,0,0,1,1.655.331,1,1,0,0,1,.441.883,2.293,2.293,0,0,1-.552,1.324,6.326,6.326,0,0,1-1.214,1.214,8.8,8.8,0,0,1-1.766.883c.441.221.773.441.773.883a2.934,2.934,0,0,1-.662,1.545,7.494,7.494,0,0,1-1.324,1.324,7.23,7.23,0,0,1-1.435.883,7.137,7.137,0,0,1-1.435.441,8.58,8.58,0,0,1-1.766.221H21.6m5.739-5.629h2.207a4.549,4.549,0,0,0,1.324-.11,2.1,2.1,0,0,0,1.1-.552,3.36,3.36,0,0,0,.883-.883,2.173,2.173,0,0,0,.441-.883.607.607,0,0,0-.331-.552,4.2,4.2,0,0,0-1.435-.11H29.546Zm-3.532,4.635h3.532a3.221,3.221,0,0,0,.993-.221,2.4,2.4,0,0,0,.883-.552,6.66,6.66,0,0,0,.883-.883,1.348,1.348,0,0,0,.441-.993.607.607,0,0,0-.331-.552,3.17,3.17,0,0,0-1.324-.221H26.456Z" transform="translate(202.893 -48.765)" fill="#fff"/>
    <path id="Caminho_737" data-name="Caminho 737" d="M30,218.994l5.518-7.284h1.1l-.883,1.1a5.626,5.626,0,0,1,1.545-.993,3.221,3.221,0,0,1,.993-.221,1.076,1.076,0,0,1,.993.441l-1.324,1.1a.811.811,0,0,0-.662-.221,3.41,3.41,0,0,0-.883.221,2.605,2.605,0,0,0-.993.662,16.961,16.961,0,0,0-1.324,1.435l-2.869,3.752H30" transform="translate(203.764 -48.517)" fill="#fff"/>
    <path id="Caminho_738" data-name="Caminho 738" d="M41.02,216.677l1.214.11a9.088,9.088,0,0,1-2.428,1.766,5.8,5.8,0,0,1-2.538.662c-1.1,0-1.655-.331-1.766-.993s.221-1.545,1.1-2.759a10.778,10.778,0,0,1,3.09-2.869,6.327,6.327,0,0,1,3.2-.993q1.49,0,1.655.993c.11.662-.221,1.545-1.214,2.759-.11.11-.11.221-.221.331H37.6a2.567,2.567,0,0,0-.662,1.876c.11.441.441.662,1.1.662a3.811,3.811,0,0,0,1.435-.331c.331-.331.883-.662,1.545-1.214m-2.649-1.986h4.083a2.677,2.677,0,0,0,.552-1.324q0-.662-.993-.662a4.478,4.478,0,0,0-1.876.552A5.337,5.337,0,0,0,38.371,214.69Z" transform="translate(204.332 -48.517)" fill="#fff"/>
    <path id="Caminho_739" data-name="Caminho 739" d="M41.4,219.015l5.518-7.284h1.1l-.773.993a11.026,11.026,0,0,1,1.545-.883,4.332,4.332,0,0,1,1.545-.331,1.465,1.465,0,0,1,1.1.331.667.667,0,0,1,0,.883,5.824,5.824,0,0,1,3.2-1.324c.773,0,1.1.221,1.214.552.11.441-.221.993-.773,1.876l-3.752,4.966H50.119l3.421-4.525a7.083,7.083,0,0,0,.662-1.1.493.493,0,0,0,0-.552.843.843,0,0,0-.552-.221,3.284,3.284,0,0,0-1.655.552,6.072,6.072,0,0,0-1.766,1.655l-3.2,4.194H45.814l3.532-4.746a2.627,2.627,0,0,0,.662-1.214c0-.221-.221-.441-.662-.441a5.7,5.7,0,0,0-1.214.221,4.558,4.558,0,0,0-1.214.772,6.394,6.394,0,0,0-1.324,1.545l-2.869,3.752H41.4" transform="translate(204.945 -48.537)" fill="#fff"/>
    <path id="Caminho_740" data-name="Caminho 740" d="M58.82,216.677l1.214.11a9.088,9.088,0,0,1-2.428,1.766,5.8,5.8,0,0,1-2.538.662c-1.1,0-1.655-.331-1.766-.993s.221-1.545,1.1-2.759a10.778,10.778,0,0,1,3.09-2.869,6.327,6.327,0,0,1,3.2-.993q1.49,0,1.655.993c.11.662-.221,1.545-1.214,2.759-.11.11-.11.221-.221.331H55.4a2.567,2.567,0,0,0-.662,1.876c.11.441.441.662,1.1.662a3.811,3.811,0,0,0,1.435-.331c.331-.331.883-.662,1.545-1.214m-2.649-1.986h4.083a2.677,2.677,0,0,0,.552-1.324q0-.662-.993-.662a4.478,4.478,0,0,0-1.876.552A5.337,5.337,0,0,0,56.171,214.69Z" transform="translate(206.176 -48.517)" fill="#fff"/>
    <path id="Caminho_741" data-name="Caminho 741" d="M59.2,218.994l5.518-7.284h1.1l-.883,1.1a5.627,5.627,0,0,1,1.545-.993,3.221,3.221,0,0,1,.993-.221,1.076,1.076,0,0,1,.993.441l-1.324,1.1a.811.811,0,0,0-.662-.221,3.41,3.41,0,0,0-.883.221,2.606,2.606,0,0,0-.993.662,16.963,16.963,0,0,0-1.324,1.435l-2.869,3.752H59.2" transform="translate(206.79 -48.517)" fill="#fff"/>
    <path id="Caminho_742" data-name="Caminho 742" d="M74.72,216.677l1.214.11a9.088,9.088,0,0,1-2.428,1.766,5.8,5.8,0,0,1-2.538.662c-1.1,0-1.655-.331-1.766-.993s.221-1.545,1.1-2.759a10.778,10.778,0,0,1,3.09-2.869,6.327,6.327,0,0,1,3.2-.993q1.49,0,1.655.993c.11.662-.221,1.545-1.214,2.759,0,.11-.11.221-.221.331H71.3a2.567,2.567,0,0,0-.662,1.876c.11.441.441.662,1.1.662a3.811,3.811,0,0,0,1.435-.331,12.148,12.148,0,0,0,1.545-1.214m-2.538-1.986h4.083a2.677,2.677,0,0,0,.552-1.324q0-.662-.993-.662a4.478,4.478,0,0,0-1.876.552A4.43,4.43,0,0,0,72.182,214.69Z" transform="translate(207.824 -48.517)" fill="#fff"/>
    <path id="Caminho_743" data-name="Caminho 743" d="M78.8,219.253l7.615-10.043H88.4l-2.98,7.063c-.331.662-.441,1.1-.662,1.435a19.872,19.872,0,0,0,1.766-1.655l7.725-6.953h1.766L88.4,219.143H87.077l6.291-8.388-9.27,8.388H82.883l3.532-8.5-6.4,8.5H78.8" transform="translate(208.821 -48.776)" fill="#fff"/>
    <path id="Caminho_744" data-name="Caminho 744" d="M94.87,218.122a6.581,6.581,0,0,1-1.987.773,8.659,8.659,0,0,1-1.545.221c-.773,0-1.324-.221-1.435-.552a1.872,1.872,0,0,1,.441-1.545,4.215,4.215,0,0,1,.993-.993,2.631,2.631,0,0,1,1.214-.662,5.383,5.383,0,0,1,1.214-.441c.331-.11.662-.11,1.214-.221a10.671,10.671,0,0,0,2.538-.441,1.368,1.368,0,0,1,.221-.331c.331-.552.552-.883.441-1.1-.11-.331-.441-.441-1.1-.441a3.525,3.525,0,0,0-1.545.331,5.554,5.554,0,0,0-1.435,1.1l-1.1-.11a12.032,12.032,0,0,1,1.435-1.214,5.767,5.767,0,0,1,1.655-.773,5.467,5.467,0,0,1,1.876-.221,3.17,3.17,0,0,1,1.324.221.563.563,0,0,1,.441.552,3.411,3.411,0,0,1-.221.883,6.959,6.959,0,0,1-.773,1.1l-1.214,1.655a11.644,11.644,0,0,0-1.545,2.207,1.468,1.468,0,0,0-.331.883H94.429a2.173,2.173,0,0,1,.441-.883m1.876-2.759a10.685,10.685,0,0,1-2.428.441,8.24,8.24,0,0,0-1.214.221,1.779,1.779,0,0,0-.773.441c-.221.221-.441.331-.662.552-.221.331-.331.552-.221.773s.331.331.883.331a4.333,4.333,0,0,0,1.545-.331,3.894,3.894,0,0,0,1.435-.883,6.037,6.037,0,0,0,1.1-1.214Z" transform="translate(209.967 -48.527)" fill="#fff"/>
    <path id="Caminho_745" data-name="Caminho 745" d="M96.5,218.994l5.518-7.284h1.1l-.883,1.1a5.626,5.626,0,0,1,1.545-.993,3.221,3.221,0,0,1,.993-.221,1.076,1.076,0,0,1,.993.441l-1.324,1.1a.811.811,0,0,0-.662-.221,3.41,3.41,0,0,0-.883.221,2.605,2.605,0,0,0-.993.662,16.962,16.962,0,0,0-1.324,1.435l-2.869,3.752H96.5" transform="translate(210.655 -48.517)" fill="#fff"/>
    <path id="Caminho_746" data-name="Caminho 746" d="M107.53,216.356l1.1.11a8.8,8.8,0,0,1-2.538,1.987,5.8,5.8,0,0,1-2.538.662q-1.49,0-1.655-.993c-.11-.662.331-1.545,1.214-2.759a11.815,11.815,0,0,1,1.987-2.1,9.022,9.022,0,0,1,2.207-1.324,5.118,5.118,0,0,1,2.1-.441,1.841,1.841,0,0,1,1.545.552,1.649,1.649,0,0,1-.331,1.655l-1.324.221a1.5,1.5,0,0,0,.221-1.1c-.11-.221-.331-.331-.773-.331a3.56,3.56,0,0,0-1.987.662,7.731,7.731,0,0,0-2.207,2.1c-.773.993-1.1,1.655-.993,2.1q0,.662.993.662a3.018,3.018,0,0,0,1.545-.441,4.1,4.1,0,0,0,1.435-1.214" transform="translate(211.213 -48.527)" fill="#fff"/>
    <path id="Caminho_747" data-name="Caminho 747" d="M109.416,215.352a10.749,10.749,0,0,1,3.421-2.98,5.91,5.91,0,0,1,2.869-.773c.993,0,1.545.331,1.766.993.11.662-.221,1.545-1.1,2.759a13.54,13.54,0,0,1-2.1,2.207,6.223,6.223,0,0,1-2.207,1.214,5.119,5.119,0,0,1-2.1.441c-.993,0-1.655-.331-1.766-.993s.221-1.545,1.214-2.869m1.214,0a4.254,4.254,0,0,0-.993,2.1.887.887,0,0,0,.993.662,4.2,4.2,0,0,0,2.1-.662,7.852,7.852,0,0,0,2.207-2.1c.662-.883.993-1.545.883-1.986,0-.441-.441-.662-.993-.662a4.2,4.2,0,0,0-2.1.662A11.308,11.308,0,0,0,110.63,215.352Z" transform="translate(211.865 -48.517)" fill="#fff"/>
    <path id="Caminho_748" data-name="Caminho 748" d="M116.2,218.994l2.759-7.284h1.324l-1.766,4.3c-.221.441-.441.993-.662,1.435.441-.331.883-.883,1.545-1.435l4.966-4.415h1.324l-8.277,7.284H116.2" transform="translate(212.696 -48.517)" fill="#fff"/>
    <path id="Caminho_749" data-name="Caminho 749" d="M127.211,210.635l1.1-1.435h1.214l-1.1,1.435h-1.214m-6.511,8.608,5.518-7.284h1.214l-5.518,7.284Z" transform="translate(213.162 -48.765)" fill="#fff"/>
    <path id="Caminho_750" data-name="Caminho 750" d="M123.6,219.233l7.5-9.933h1.214l-7.5,9.933H123.6" transform="translate(213.463 -48.755)" fill="#fff"/>
    <path id="Caminho_751" data-name="Caminho 751" d="M130.1,219.253l7.615-10.043H139.7l-2.98,7.063c-.331.662-.441,1.1-.662,1.435a19.863,19.863,0,0,0,1.766-1.655l7.725-6.953h1.766L139.7,219.143h-1.324l6.291-8.388-9.27,8.388h-1.214l3.532-8.5-6.4,8.5H130.1" transform="translate(214.136 -48.776)" fill="#fff"/>
    <path id="Caminho_752" data-name="Caminho 752" d="M147.32,216.677l1.214.11a9.089,9.089,0,0,1-2.428,1.766,5.445,5.445,0,0,1-2.538.662c-1.1,0-1.655-.331-1.766-.993s.221-1.545,1.1-2.759a10.779,10.779,0,0,1,3.09-2.869,6.327,6.327,0,0,1,3.2-.993q1.49,0,1.655.993c.11.662-.221,1.545-1.214,2.759,0,.11-.11.221-.221.331H143.9a2.567,2.567,0,0,0-.662,1.876c.11.441.441.662,1.1.662a3.4,3.4,0,0,0,1.435-.331,12.148,12.148,0,0,0,1.545-1.214m-2.538-1.986h4.083a2.677,2.677,0,0,0,.552-1.324q0-.662-.993-.662a4.478,4.478,0,0,0-1.876.552A4.43,4.43,0,0,0,144.782,214.69Z" transform="translate(215.347 -48.517)" fill="#fff"/>
    <path id="Caminho_753" data-name="Caminho 753" d="M151.253,218.119l-.662,1.1a3.8,3.8,0,0,1-.993.11,1.426,1.426,0,0,1-.883-.221.485.485,0,0,1-.11-.552c.11-.221.441-.662.993-1.435l3.2-4.194h-.883l.772-.993h.883l1.324-1.766,1.766-.772-1.876,2.538H156l-.773.993h-1.214l-3.2,4.194c-.221.331-.441.552-.441.662v.221c0,.11.221.11.331.11a.493.493,0,0,0,.552,0" transform="translate(216.049 -48.745)" fill="#fff"/>
    <path id="Caminho_754" data-name="Caminho 754" d="M156.77,218.122a6.582,6.582,0,0,1-1.986.773,8.659,8.659,0,0,1-1.545.221,1.6,1.6,0,0,1-1.435-.552,1.872,1.872,0,0,1,.441-1.545,4.214,4.214,0,0,1,.993-.993,2.631,2.631,0,0,1,1.214-.662,5.382,5.382,0,0,1,1.214-.441c.331-.11.662-.11,1.214-.221a10.671,10.671,0,0,0,2.538-.441,1.368,1.368,0,0,1,.221-.331c.331-.552.552-.883.441-1.1-.11-.331-.441-.441-1.1-.441a3.525,3.525,0,0,0-1.545.331,5.554,5.554,0,0,0-1.435,1.1l-1.1-.11a7.428,7.428,0,0,1,1.545-1.214,5.768,5.768,0,0,1,1.655-.773,5.163,5.163,0,0,1,1.876-.221,3.17,3.17,0,0,1,1.324.221.563.563,0,0,1,.441.552,3.413,3.413,0,0,1-.221.883,6.959,6.959,0,0,1-.773,1.1l-1.214,1.655a11.643,11.643,0,0,0-1.545,2.207,1.468,1.468,0,0,0-.331.883h-1.324a6.512,6.512,0,0,1,.441-.883m1.987-2.759a10.685,10.685,0,0,1-2.428.441,8.241,8.241,0,0,0-1.214.221,1.778,1.778,0,0,0-.773.441c-.221.221-.441.331-.662.552-.221.331-.331.552-.221.773s.331.331.883.331a4.333,4.333,0,0,0,1.545-.331,3.9,3.9,0,0,0,1.435-.883,6.038,6.038,0,0,0,1.1-1.214Z" transform="translate(216.381 -48.527)" fill="#fff"/>
    <path id="Caminho_755" data-name="Caminho 755" d="M158.4,219.233l7.615-9.933h1.214l-7.5,9.933H158.4" transform="translate(217.069 -48.755)" fill="#fff"/>
    <path id="Caminho_756" data-name="Caminho 756" d="M163.516,215.352a9.7,9.7,0,0,1,3.421-2.98,5.91,5.91,0,0,1,2.869-.773c.993,0,1.545.331,1.766.993.11.662-.221,1.545-1.1,2.759a13.543,13.543,0,0,1-2.1,2.207,6.223,6.223,0,0,1-2.207,1.214,5.119,5.119,0,0,1-2.1.441c-.993,0-1.655-.331-1.766-.993s.221-1.545,1.214-2.869m1.214,0a4.254,4.254,0,0,0-.993,2.1.887.887,0,0,0,.993.662,4.2,4.2,0,0,0,2.1-.662,7.853,7.853,0,0,0,2.207-2.1c.662-.883.993-1.545.883-1.986a.887.887,0,0,0-.993-.662,4.2,4.2,0,0,0-2.1.662A11.306,11.306,0,0,0,164.73,215.352Z" transform="translate(217.471 -48.517)" fill="#fff"/>
    <path id="Caminho_757" data-name="Caminho 757" d="M168.4,219.015l5.518-7.284h1.1l-.773.993a11.023,11.023,0,0,1,1.545-.883,4.332,4.332,0,0,1,1.545-.331,1.465,1.465,0,0,1,1.1.331.667.667,0,0,1,0,.883,5.824,5.824,0,0,1,3.2-1.324c.773,0,1.1.221,1.214.552.11.441-.221.993-.773,1.876l-3.752,4.966h-1.214l3.421-4.525a7.078,7.078,0,0,0,.662-1.1.493.493,0,0,0,0-.552.843.843,0,0,0-.552-.221,3.284,3.284,0,0,0-1.655.552,6.072,6.072,0,0,0-1.766,1.655l-3.2,4.194h-1.214l3.532-4.746a2.627,2.627,0,0,0,.662-1.214c0-.221-.221-.441-.662-.441a5.7,5.7,0,0,0-1.214.221,4.558,4.558,0,0,0-1.214.772,6.393,6.393,0,0,0-1.324,1.545l-2.869,3.752H168.4" transform="translate(218.105 -48.537)" fill="#fff"/>
    <path id="Caminho_758" data-name="Caminho 758" d="M185.82,216.677l1.214.11a9.088,9.088,0,0,1-2.428,1.766,5.445,5.445,0,0,1-2.538.662c-1.1,0-1.655-.331-1.766-.993s.221-1.545,1.1-2.759a10.778,10.778,0,0,1,3.09-2.869,6.327,6.327,0,0,1,3.2-.993q1.49,0,1.655.993c.11.662-.221,1.545-1.214,2.759,0,.11-.11.221-.221.331H182.4a2.567,2.567,0,0,0-.662,1.876c.11.441.441.662,1.1.662a3.811,3.811,0,0,0,1.435-.331c.331-.331.883-.662,1.545-1.214m-2.649-1.986h4.083a2.677,2.677,0,0,0,.552-1.324q0-.662-.993-.662a4.478,4.478,0,0,0-1.876.552A5.337,5.337,0,0,0,183.171,214.69Z" transform="translate(219.336 -48.517)" fill="#fff"/>
    <path id="Caminho_759" data-name="Caminho 759" d="M192.93,216.356l1.1.11a10.587,10.587,0,0,1-2.538,1.987,5.8,5.8,0,0,1-2.538.662q-1.49,0-1.656-.993c-.11-.662.331-1.545,1.214-2.759a11.816,11.816,0,0,1,1.987-2.1,9.022,9.022,0,0,1,2.207-1.324,5.118,5.118,0,0,1,2.1-.441,1.841,1.841,0,0,1,1.545.552,1.649,1.649,0,0,1-.331,1.655l-1.324.221a1.5,1.5,0,0,0,.221-1.1c-.11-.221-.331-.331-.773-.331a3.56,3.56,0,0,0-1.987.662,7.731,7.731,0,0,0-2.207,2.1c-.773.993-1.1,1.655-.993,2.1q0,.662.993.662a3.018,3.018,0,0,0,1.545-.441,4.1,4.1,0,0,0,1.435-1.214" transform="translate(220.062 -48.527)" fill="#fff"/>
    <path id="Caminho_760" data-name="Caminho 760" d="M198.07,218.35a6.584,6.584,0,0,1-1.987.773,8.656,8.656,0,0,1-1.545.221c-.773,0-1.324-.221-1.435-.552a1.872,1.872,0,0,1,.441-1.545,4.214,4.214,0,0,1,.993-.993,3.314,3.314,0,0,1,1.214-.662,5.379,5.379,0,0,1,1.214-.441c.331-.11.662-.11,1.214-.221a10.672,10.672,0,0,0,2.538-.441,1.364,1.364,0,0,1,.221-.331c.331-.552.552-.883.441-1.1-.11-.331-.441-.441-1.1-.441a3.525,3.525,0,0,0-1.545.331,5.555,5.555,0,0,0-1.435,1.1l-1.1-.11a7.428,7.428,0,0,1,1.545-1.214,5.765,5.765,0,0,1,1.655-.773,5.466,5.466,0,0,1,1.876-.221,3.169,3.169,0,0,1,1.324.221.563.563,0,0,1,.441.552,3.413,3.413,0,0,1-.221.883c-.11.221-.441.552-.773,1.1l-1.214,1.655a11.645,11.645,0,0,0-1.545,2.207,1.468,1.468,0,0,0-.331.883h-1.324a6.505,6.505,0,0,1,.441-.883m4.525-8.388-1.655,1.214H199.5l2.98-1.876h1.324l.11,1.876h-1.435Zm-2.538,5.629a10.69,10.69,0,0,1-2.428.441c-.552.11-.993.11-1.324.221a1.779,1.779,0,0,0-.773.441c-.221.221-.441.331-.552.552-.221.331-.331.552-.221.773s.331.331.883.331a4.332,4.332,0,0,0,1.545-.331,3.893,3.893,0,0,0,1.435-.883,6.039,6.039,0,0,0,1.1-1.214Z" transform="translate(220.661 -48.755)" fill="#fff"/>
    <path id="Caminho_761" data-name="Caminho 761" d="M199.8,219l5.518-7.284h1.1l-.772.993a5.807,5.807,0,0,1,3.2-1.214,2.2,2.2,0,0,1,.993.221.667.667,0,0,1,.331.662,1.761,1.761,0,0,1-.331.883,9.755,9.755,0,0,1-.883,1.214l-3.421,4.415h-1.1l3.311-4.415c.331-.552.662-.883.662-1.1.11-.221.11-.441-.11-.552a.933.933,0,0,0-.662-.221,4.056,4.056,0,0,0-1.766.552,6.213,6.213,0,0,0-1.987,1.876L200.9,219h-1.1" transform="translate(221.359 -48.527)" fill="#fff"/>
    <path id="Caminho_762" data-name="Caminho 762" d="M213.411,210.635l1.1-1.435h1.214l-1.1,1.435h-1.214m-6.511,8.608,5.518-7.284h1.214l-5.518,7.284Z" transform="translate(222.095 -48.765)" fill="#fff"/>
    <path id="Caminho_763" data-name="Caminho 763" d="M216.43,216.356l1.1.11A10.586,10.586,0,0,1,215,218.453a5.8,5.8,0,0,1-2.538.662q-1.49,0-1.655-.993c-.11-.662.331-1.545,1.214-2.759a11.814,11.814,0,0,1,1.987-2.1,9.021,9.021,0,0,1,2.207-1.324,5.118,5.118,0,0,1,2.1-.441,1.841,1.841,0,0,1,1.545.552,1.649,1.649,0,0,1-.331,1.655l-1.324.221a1.5,1.5,0,0,0,.221-1.1c-.11-.221-.331-.331-.772-.331a3.56,3.56,0,0,0-1.987.662,7.731,7.731,0,0,0-2.207,2.1c-.773.993-1.1,1.655-.993,2.1q0,.662.993.662A3.018,3.018,0,0,0,215,217.57a4.1,4.1,0,0,0,1.435-1.214" transform="translate(222.497 -48.527)" fill="#fff"/>
    <path id="Caminho_764" data-name="Caminho 764" d="M221.57,218.122a6.582,6.582,0,0,1-1.986.773,8.659,8.659,0,0,1-1.545.221c-.773,0-1.324-.221-1.435-.552a1.872,1.872,0,0,1,.441-1.545,4.216,4.216,0,0,1,.993-.993,3.316,3.316,0,0,1,1.214-.662,5.382,5.382,0,0,1,1.214-.441c.331-.11.662-.11,1.214-.221a10.671,10.671,0,0,0,2.538-.441,1.368,1.368,0,0,1,.221-.331c.441-.552.552-.883.441-1.1-.11-.331-.441-.441-1.1-.441a3.525,3.525,0,0,0-1.545.331,5.554,5.554,0,0,0-1.435,1.1l-1.1-.11a7.429,7.429,0,0,1,1.545-1.214,5.767,5.767,0,0,1,1.655-.773,5.467,5.467,0,0,1,1.876-.221,3.17,3.17,0,0,1,1.324.221.563.563,0,0,1,.441.552,3.411,3.411,0,0,1-.221.883c-.11.221-.441.552-.773,1.1l-1.214,1.655a11.646,11.646,0,0,0-1.545,2.207,1.468,1.468,0,0,0-.331.883h-1.324a6.5,6.5,0,0,1,.441-.883m1.987-2.759a10.685,10.685,0,0,1-2.428.441c-.552.11-.993.11-1.324.221a1.779,1.779,0,0,0-.773.441c-.221.221-.441.331-.552.552-.221.331-.331.552-.221.773s.331.331.883.331a4.333,4.333,0,0,0,1.545-.331,3.9,3.9,0,0,0,1.435-.883,6.038,6.038,0,0,0,1.1-1.214Z" transform="translate(223.096 -48.527)" fill="#fff"/>
    <path id="Caminho_765" data-name="Caminho 765" d="M251.5,218.424l.993-1.324h1.435l-.993,1.324H251.5" transform="translate(226.716 -47.947)" fill="#fff"/>
    <path id="Caminho_766" data-name="Caminho 766" d="M226.5,219.233,234,209.3h1.324l-6.622,8.829h4.966l-.883,1.1H226.5" transform="translate(224.126 -48.755)" fill="#fff"/>
    <path id="Caminho_767" data-name="Caminho 767" d="M236.953,218.119l-.662,1.1a3.8,3.8,0,0,1-.993.11,1.426,1.426,0,0,1-.883-.221.485.485,0,0,1-.11-.552,6.514,6.514,0,0,1,.993-1.435l3.2-4.194h-.883l.773-.993h.883l1.324-1.766,1.766-.772-1.876,2.538H241.7l-.773.993h-1.214l-3.2,4.194c-.221.331-.441.552-.441.662v.221c0,.11.11.11.331.11a.493.493,0,0,0,.552,0" transform="translate(224.93 -48.745)" fill="#fff"/>
    <path id="Caminho_768" data-name="Caminho 768" d="M241.743,219.222l.662-.883a4.713,4.713,0,0,1-2.869,1.1,1.375,1.375,0,0,1-1.214-.441,1.358,1.358,0,0,1-.11-1.324,6.118,6.118,0,0,1,1.1-1.987,10.774,10.774,0,0,1,1.876-1.987,11.008,11.008,0,0,1,2.1-1.324,5.01,5.01,0,0,1,1.987-.441,1.349,1.349,0,0,1,.993.331,1,1,0,0,1,.331.773l2.759-3.642h1.214l-7.615,10.043h-1.214m-1.214-3.863a4.254,4.254,0,0,0-.993,2.1c0,.441.331.662.883.662a3.517,3.517,0,0,0,1.876-.662,7.066,7.066,0,0,0,2.1-1.987,4.368,4.368,0,0,0,1.1-2.207c0-.441-.331-.662-.883-.662a3.518,3.518,0,0,0-1.876.662A9.661,9.661,0,0,0,240.529,215.58Z" transform="translate(225.327 -48.745)" fill="#fff"/>
    <path id="Caminho_769" data-name="Caminho 769" d="M249.57,218.122a6.581,6.581,0,0,1-1.986.773,8.659,8.659,0,0,1-1.545.221c-.773,0-1.324-.221-1.435-.552a1.872,1.872,0,0,1,.441-1.545,4.214,4.214,0,0,1,.993-.993,3.316,3.316,0,0,1,1.214-.662,5.381,5.381,0,0,1,1.214-.441c.331-.11.662-.11,1.214-.221a10.671,10.671,0,0,0,2.538-.441,1.367,1.367,0,0,1,.221-.331c.331-.552.552-.883.441-1.1-.11-.331-.441-.441-1.1-.441a3.525,3.525,0,0,0-1.545.331,5.553,5.553,0,0,0-1.435,1.1l-1.1-.11a7,7,0,0,1,1.435-1.214,5.766,5.766,0,0,1,1.655-.773,5.163,5.163,0,0,1,1.876-.221,3.171,3.171,0,0,1,1.324.221.563.563,0,0,1,.441.552,3.412,3.412,0,0,1-.221.883,6.962,6.962,0,0,1-.773,1.1l-1.214,1.655a11.643,11.643,0,0,0-1.545,2.207,1.468,1.468,0,0,0-.331.883h-1.324a6.157,6.157,0,0,0,.552-.883m1.987-2.759a10.685,10.685,0,0,1-2.428.441,8.241,8.241,0,0,0-1.214.221,1.779,1.779,0,0,0-.773.441c-.221.221-.441.331-.662.552-.221.331-.331.552-.221.773s.331.331.883.331a4.333,4.333,0,0,0,1.545-.331,3.894,3.894,0,0,0,1.435-.883,6.037,6.037,0,0,0,1.1-1.214Z" transform="translate(225.998 -48.527)" fill="#fff"/>
  </g>
</svg>
